<svg version="1.1" id="svg-logo" xmlns="http://www.w3.org/2000/svg" xmlns:xlink="http://www.w3.org/1999/xlink" x="0px" y="0px"
	 viewBox="0 0 166.1 166.1" shape-rendering="geometricPrecision" >
<g>
	<path d="M83,0C37.3,0,0,37.3,0,83c0,45.8,37.3,83,83,83c45.8,0,83-37.3,83-83C166.1,37.3,128.8,0,83,0z M131.3,25.9
		L94.1,49v-9.2h0c-0.2-3.1-4.4-5.5-9.7-5.5c-5.2,0-9.5,2.5-9.7,5.5h0V49L36,24.9C48.9,14.5,65.2,8.3,83,8.3
		C101.4,8.3,118.2,14.9,131.3,25.9z M31.7,28.7l43.7,27.1l1.6-2.5h14.9l1.6,2.5l42-26.1c13.8,13.6,22.4,32.4,22.4,53.3
		c0,8.8-1.6,17.3-4.4,25.2l-60-43.3l-1.6,2.6h-5.9h-3.5h-5.9l-1.6-2.6l-61.7,45c-3.2-8.3-5-17.4-5-26.8
		C8.3,61.7,17.3,42.4,31.7,28.7z M105.4,154.4c-1.7-7.6-5.2-23.7-7.9-41.4c-5.2,6.3-16.3,17.6-29.9,19.3c-1.9,10-3.7,18.2-4.7,22.8
		c-21-5.9-38.2-20.7-47.4-40l59-43c0.1,7.3-0.4,15.3-1.3,23.5c10-3.1,18.1-15,20.8-19.4c0-1.4,0-2.8,0-4.1l57.4,41.5
		C142.7,132.9,125.9,148,105.4,154.4z"/>
	<path d="M72.7,99.7c-1.1,9.9-2.7,19.7-4.3,28.5c14-2.4,25.4-16.6,28.4-20.6c-1.1-8.3-2.1-16.9-2.5-24.9
		C89.8,88.9,82,97.6,72.7,99.7z"/>
</g>
</svg>